<svg id="Layer_1" data-name="Layer 1" xmlns="http://www.w3.org/2000/svg" viewBox="0 0 303.49707 303.83105"><defs><style>.cls-1{fill:#010101;}.cls-2{fill:none;stroke:#010101;stroke-linecap:round;stroke-miterlimit:10;stroke-width:14px;}</style></defs><title>a-shape</title><path class="cls-1" d="M224.03906,14H7A7,7,0,0,1,7,0H224.03906a7,7,0,0,1,0,14Z"/><path class="cls-2" d="M225.21019,78.62114"/><path class="cls-2" d="M7,78.62114"/><path class="cls-2" d="M225.21019,296.83131"/><path class="cls-2" d="M7,296.83131"/><path class="cls-2" d="M225.21019,223.2021"/><path class="cls-2" d="M7,223.2021"/><path class="cls-1" d="M7,303.83105a6.99972,6.99972,0,0,1-7-7V7A7,7,0,0,1,14,7V296.83105A6.99972,6.99972,0,0,1,7,303.83105Z"/><path class="cls-1" d="M79.29053,303.2041a6.99972,6.99972,0,0,1-7-7V7a7,7,0,0,1,14,0V296.2041A6.99972,6.99972,0,0,1,79.29053,303.2041Z"/><path class="cls-1" d="M224.792,85.62109H7.75293a7,7,0,0,1,0-14H224.792a7,7,0,0,1,0,14Z"/><path class="cls-1" d="M296.49707,231.37305H7a7,7,0,0,1,0-14H296.49707a7,7,0,0,1,0,14Z"/><path class="cls-1" d="M296.49707,303.2041H7.75293a7,7,0,1,1,0-14H296.49707a7,7,0,0,1,0,14Z"/><path class="cls-1" d="M224.792,301.82324a6.99972,6.99972,0,0,1-7-7V7.314a7,7,0,0,1,14,0V294.82324A6.99972,6.99972,0,0,1,224.792,301.82324Z"/><path class="cls-1" d="M151.74854,301.82324a6.99972,6.99972,0,0,1-7-7V7.314a6.99976,6.99976,0,1,1,13.99951,0V294.82324A6.99962,6.99962,0,0,1,151.74854,301.82324Z"/></svg>