<svg id="Layer_1" data-name="Layer 1" xmlns="http://www.w3.org/2000/svg" viewBox="0 0 231.2627 446.27637"><defs><style>.cls-1{fill:#010101;}</style></defs><title>b-shape</title><path class="cls-1" d="M7,446.27637a6.99972,6.99972,0,0,1-7-7V7A7,7,0,0,1,14,7V439.27637A6.99972,6.99972,0,0,1,7,446.27637Z"/><path class="cls-1" d="M78.97656,446.27637a6.99972,6.99972,0,0,1-7-7V7a7,7,0,0,1,14,0V439.27637A6.99972,6.99972,0,0,1,78.97656,446.27637Z"/><path class="cls-1" d="M150.95313,446.27637a6.99972,6.99972,0,0,1-7-7V150.70361a7,7,0,0,1,14,0V439.27637A6.99972,6.99972,0,0,1,150.95313,446.27637Z"/><path class="cls-1" d="M224.2627,446.27637a6.99972,6.99972,0,0,1-7-7V150.70361a7,7,0,0,1,14,0V439.27637A6.99972,6.99972,0,0,1,224.2627,446.27637Z"/><path class="cls-1" d="M224.2627,157.70361H7a7,7,0,0,1,0-14H224.2627a7,7,0,0,1,0,14Z"/><path class="cls-1" d="M224.2627,229.01367H7a7,7,0,0,1,0-14H224.2627a7,7,0,0,1,0,14Z"/><path class="cls-1" d="M224.2627,372.9668H7a7,7,0,0,1,0-14H224.2627a7,7,0,0,1,0,14Z"/><path class="cls-1" d="M224.2627,446.27637H7a7,7,0,0,1,0-14H224.2627a7,7,0,1,1,0,14Z"/></svg>