<svg id="Layer_1" data-name="Layer 1" xmlns="http://www.w3.org/2000/svg" viewBox="0 0 231.35645 303.25195"><defs><style>.cls-1{fill:#010101;}.cls-2{fill:none;stroke:#010101;stroke-linecap:round;stroke-miterlimit:10;stroke-width:14px;}</style></defs><title>c-shape</title><path class="cls-1" d="M223.60547,14H7A7,7,0,0,1,7,0H223.60547a7,7,0,0,1,0,14Z"/><path class="cls-2" d="M224.77412,78.478"/><path class="cls-2" d="M7,78.478"/><path class="cls-2" d="M224.77412,296.25214"/><path class="cls-2" d="M7,296.25214"/><path class="cls-2" d="M224.77412,222.77014"/><path class="cls-2" d="M7,222.77014"/><path class="cls-1" d="M7,303.252a6.99972,6.99972,0,0,1-7-7V7A7,7,0,0,1,14,7V296.252A6.99972,6.99972,0,0,1,7,303.252Z"/><path class="cls-1" d="M79.146,302.626a6.99972,6.99972,0,0,1-7-7V7a7,7,0,0,1,14,0V295.626A6.99972,6.99972,0,0,1,79.146,302.626Z"/><path class="cls-1" d="M224.35645,85.478H7.75146a7,7,0,1,1,0-14h216.605a7,7,0,0,1,0,14Z"/><path class="cls-1" d="M223.60547,230.93945H7a7,7,0,0,1,0-14H223.60547a7,7,0,0,1,0,14Z"/><path class="cls-1" d="M224.35645,302.626H7.75146a7,7,0,0,1,0-14h216.605a7,7,0,0,1,0,14Z"/></svg>