<svg id="Layer_1" data-name="Layer 1" xmlns="http://www.w3.org/2000/svg" viewBox="0 0 230.08105 444.54688"><defs><style>.cls-1{fill:#010101;}</style></defs><title>d-shape</title><path class="cls-1" d="M150.502,443.30371a6.99972,6.99972,0,0,1-7-7V7a7,7,0,0,1,14,0V436.30371A6.99972,6.99972,0,0,1,150.502,443.30371Z"/><path class="cls-1" d="M222.916,444.54688a6.99972,6.99972,0,0,1-7-7V7a7,7,0,0,1,14,0V437.54688A6.99972,6.99972,0,0,1,222.916,444.54688Z"/><path class="cls-1" d="M7,443.92578a6.99972,6.99972,0,0,1-7-7V149.92188a7,7,0,0,1,14,0v287.0039A6.99972,6.99972,0,0,1,7,443.92578Z"/><path class="cls-1" d="M78.751,443.92578a6.99972,6.99972,0,0,1-7-7V149.92188a7,7,0,0,1,14,0v287.0039A6.99972,6.99972,0,0,1,78.751,443.92578Z"/><path class="cls-1" d="M223.08105,156.92188H7a7,7,0,0,1,0-14H223.08105a7,7,0,0,1,0,14Z"/><path class="cls-1" d="M223.08105,227.84375H7a6.99976,6.99976,0,1,1,0-13.99951H223.08105a6.99976,6.99976,0,1,1,0,13.99951Z"/><path class="cls-1" d="M223.08105,371.01465H7a7,7,0,0,1,0-14H223.08105a7,7,0,1,1,0,14Z"/><path class="cls-1" d="M223.08105,443.92578H7a7,7,0,0,1,0-14H223.08105a7,7,0,1,1,0,14Z"/></svg>