<svg id="Layer_1" data-name="Layer 1" xmlns="http://www.w3.org/2000/svg" viewBox="0 0 230.79688 301.95313"><defs><style>.cls-1{fill:#010101;}</style></defs><title>e-shape</title><path class="cls-1" d="M222.4668,14H7A7,7,0,0,1,7,0H222.4668a7,7,0,0,1,0,14Z"/><path class="cls-1" d="M222.4668,85.15723H7a7,7,0,0,1,0-14H222.4668a7,7,0,0,1,0,14Z"/><path class="cls-1" d="M223.79688,301.95313H7a7,7,0,0,1,0-14H223.79688a7,7,0,0,1,0,14Z"/><path class="cls-1" d="M222.4668,228.80176H78.82227a7,7,0,0,1,0-14H222.4668a7,7,0,0,1,0,14Z"/><path class="cls-1" d="M7,301.95313a6.99972,6.99972,0,0,1-7-7V7A7,7,0,0,1,14,7V294.95313A6.99972,6.99972,0,0,1,7,301.95313Z"/><path class="cls-1" d="M78.82227,301.95313a6.99972,6.99972,0,0,1-7-7V7a7,7,0,0,1,14,0V294.95313A6.99972,6.99972,0,0,1,78.82227,301.95313Z"/><path class="cls-1" d="M222.4668,228.80176a6.99972,6.99972,0,0,1-7-7V7a7,7,0,0,1,14,0V221.80176A6.99972,6.99972,0,0,1,222.4668,228.80176Z"/><path class="cls-1" d="M150.64453,228.80176a6.99972,6.99972,0,0,1-7-7V7a7,7,0,0,1,14,0V221.80176A6.99972,6.99972,0,0,1,150.64453,228.80176Z"/><path class="cls-1" d="M222.4668,156.97949H78.82227a7,7,0,0,1,0-14H222.4668a7,7,0,0,1,0,14Z"/></svg>