<svg id="Layer_1" data-name="Layer 1" xmlns="http://www.w3.org/2000/svg" viewBox="0 0 229.64453 375.74805"><defs><style>.cls-1{fill:#010101;}</style></defs><title>f-shape</title><path class="cls-1" d="M78.54736,374.49414a6.99972,6.99972,0,0,1-7-7V7a7,7,0,0,1,14,0V367.49414A6.99972,6.99972,0,0,1,78.54736,374.49414Z"/><path class="cls-1" d="M151.59863,375.74805a6.99972,6.99972,0,0,1-7-7V7a7,7,0,0,1,14,0V368.74805A6.99972,6.99972,0,0,1,151.59863,375.74805Z"/><path class="cls-1" d="M222.64453,85.58887H7a7,7,0,0,1,0-14H222.64453a7,7,0,0,1,0,14Z"/><path class="cls-1" d="M222.64453,157.80469H7a7,7,0,0,1,0-14H222.64453a7,7,0,0,1,0,14Z"/><path class="cls-1" d="M222.64453,14H78.54736a7,7,0,0,1,0-14H222.64453a7,7,0,0,1,0,14Z"/></svg>