<svg id="Layer_1" data-name="Layer 1" xmlns="http://www.w3.org/2000/svg" viewBox="0 0 229.28516 370.4209"><defs><style>.cls-1{fill:#010101;}</style></defs><title>g-shape</title><path class="cls-1" d="M222.28516,14H7A7,7,0,0,1,7,0H222.28516a7,7,0,0,1,0,14Z"/><path class="cls-1" d="M222.28516,84.66113H7a7,7,0,0,1,0-14H222.28516a7,7,0,0,1,0,14Z"/><path class="cls-1" d="M222.28516,299.94629H7a7,7,0,0,1,0-14H222.28516a7,7,0,1,1,0,14Z"/><path class="cls-1" d="M222.28516,227.30371H7a7,7,0,0,1,0-14H222.28516a7,7,0,0,1,0,14Z"/><path class="cls-1" d="M7,299.94629a6.99972,6.99972,0,0,1-7-7V7A7,7,0,0,1,14,7V292.94629A6.99972,6.99972,0,0,1,7,299.94629Z"/><path class="cls-1" d="M78.32129,299.94629a6.99972,6.99972,0,0,1-7-7V7a7,7,0,0,1,14,0V292.94629A6.99972,6.99972,0,0,1,78.32129,299.94629Z"/><path class="cls-1" d="M149.64258,369.94629a6.99972,6.99972,0,0,1-7-7V7a7,7,0,0,1,14,0V362.94629A6.99972,6.99972,0,0,1,149.64258,369.94629Z"/><path class="cls-1" d="M222.28516,369.94629a6.99972,6.99972,0,0,1-7-7V7a7,7,0,0,1,14,0V362.94629A6.99972,6.99972,0,0,1,222.28516,369.94629Z"/><path class="cls-1" d="M221.459,370.4209H7.42822a7,7,0,0,1,0-14H221.459a7,7,0,0,1,0,14Z"/></svg>