<svg id="Layer_1" data-name="Layer 1" xmlns="http://www.w3.org/2000/svg" viewBox="0 0 230.52344 446.33398"><defs><style>.cls-1{fill:#010101;}</style></defs><title>h-shape</title><path class="cls-1" d="M7,445.668a6.99972,6.99972,0,0,1-7-7L.00537,7a7,7,0,1,1,14,0L14,438.668A7,7,0,0,1,7,445.668Z"/><path class="cls-1" d="M78.96826,446.334a6.99972,6.99972,0,0,1-7-7V7a7,7,0,0,1,14,0V439.334A6.99972,6.99972,0,0,1,78.96826,446.334Z"/><path class="cls-1" d="M150.44238,445.67285a6.99972,6.99972,0,0,1-7-7V150.89453a7,7,0,1,1,14,0V438.67285A6.99972,6.99972,0,0,1,150.44238,445.67285Z"/><path class="cls-1" d="M223.52344,445.67285a6.99972,6.99972,0,0,1-7-7V150.89453a7,7,0,1,1,14,0V438.67285A6.99972,6.99972,0,0,1,223.52344,445.67285Z"/><path class="cls-1" d="M223.52344,157.89453H7.00342a7,7,0,0,1,0-14h216.52a7,7,0,0,1,0,14Z"/><path class="cls-1" d="M223.52344,229.17285H7a7,7,0,0,1,0-14H223.52344a7,7,0,0,1,0,14Z"/></svg>