<svg id="Layer_1" data-name="Layer 1" xmlns="http://www.w3.org/2000/svg" viewBox="0 0 86.79102 449.33203"><defs><style>.cls-1{fill:#010101;}</style></defs><title>i-shape</title><path class="cls-1" d="M79.62305,86.61133H7.063a7,7,0,0,1,0-14H79.62305a7,7,0,0,1,0,14Z"/><path class="cls-1" d="M79.62305,14H7A7,7,0,0,1,7,0H79.62305a7,7,0,0,1,0,14Z"/><path class="cls-1" d="M7.34717,449.332a6.99972,6.99972,0,0,1-7-7V151.88672a7,7,0,0,1,14,0V442.332A6.99972,6.99972,0,0,1,7.34717,449.332Z"/><path class="cls-1" d="M79.791,449.32617a6.99972,6.99972,0,0,1-7-7V151.88184a7,7,0,0,1,14,0V442.32617A6.99972,6.99972,0,0,1,79.791,449.32617Z"/></svg>