<svg id="Layer_1" data-name="Layer 1" xmlns="http://www.w3.org/2000/svg" viewBox="0 0 157.84766 517.14063"><defs><style>.cls-1{fill:#010101;}</style></defs><title>j-shape</title><path class="cls-1" d="M288.272,705.5a6.99972,6.99972,0,0,1-7-7V339.18506a7,7,0,0,1,14,0V698.5A6.99972,6.99972,0,0,1,288.272,705.5Z" transform="translate(-209.07715 -188.35938)"/><path class="cls-1" d="M359.90332,705.5a6.99972,6.99972,0,0,1-7-7V339.18506a7,7,0,0,1,14,0V698.5A6.99972,6.99972,0,0,1,359.90332,705.5Z" transform="translate(-209.07715 -188.35938)"/><path class="cls-1" d="M359.9248,274.43848H287.896a7,7,0,1,1,0-14h72.0288a7,7,0,0,1,0,14Z" transform="translate(-209.07715 -188.35938)"/><path class="cls-1" d="M359.9248,202.35938H287.8335a7,7,0,0,1,0-14h72.0913a7,7,0,0,1,0,14Z" transform="translate(-209.07715 -188.35938)"/><path class="cls-1" d="M359.90332,705.5H216.07715a7,7,0,1,1,0-14H359.90332a7,7,0,0,1,0,14Z" transform="translate(-209.07715 -188.35938)"/></svg>