<svg id="Layer_1" data-name="Layer 1" xmlns="http://www.w3.org/2000/svg" viewBox="0 0 229.8252 444.89355"><defs><style>.cls-1{fill:#010101;}</style></defs><title>k-shape</title><path class="cls-1" d="M7.02344,444.22949h0a6.99972,6.99972,0,0,1-7-7L.02832,7a7.00035,7.00035,0,0,1,7-7h0a7,7,0,0,1,7,7l-.00488,430.22949A7,7,0,0,1,7.02344,444.22949Z"/><path class="cls-1" d="M78.75195,444.89355a6.99972,6.99972,0,0,1-7-7V7a7,7,0,0,1,14,0V437.89355A6.99972,6.99972,0,0,1,78.75195,444.89355Z"/><path class="cls-1" d="M149.98828,444.23438a6.99972,6.99972,0,0,1-7-7V293.82422a7,7,0,0,1,14,0V437.23438A6.99972,6.99972,0,0,1,149.98828,444.23438Z"/><path class="cls-1" d="M222.8252,444.23438a6.99972,6.99972,0,0,1-7-7V293.82422a7,7,0,1,1,14,0V437.23438A6.99972,6.99972,0,0,1,222.8252,444.23438Z"/><path class="cls-1" d="M222.8252,157.415H149.98828a7,7,0,0,1,0-14H222.8252a7,7,0,0,1,0,14Z"/><path class="cls-1" d="M222.8252,228.45605H7.02344a7,7,0,1,1,0-14H222.8252a7,7,0,0,1,0,14Z"/><path class="cls-1" d="M149.98828,300.82422H7a7,7,0,0,1,0-14H149.98828a7,7,0,0,1,0,14Z"/></svg>