<svg id="Layer_1" data-name="Layer 1" xmlns="http://www.w3.org/2000/svg" viewBox="0 0 86.66113 450.49854"><defs><style>.cls-1{fill:#010101;}</style></defs><title>l-shape</title><path class="cls-1" d="M215.07373,658.32715h0a6.99972,6.99972,0,0,1-7-7l.00488-435.82569a7.00035,7.00035,0,0,1,7-7h0a7,7,0,0,1,7,7l-.00488,435.82569A7,7,0,0,1,215.07373,658.32715Z" transform="translate(-208.07373 -208.50146)"/><path class="cls-1" d="M287.73486,659a6.99972,6.99972,0,0,1-7-7V215.50146a7,7,0,0,1,14,0V652A6.99972,6.99972,0,0,1,287.73486,659Z" transform="translate(-208.07373 -208.50146)"/></svg>