<svg id="Layer_1" data-name="Layer 1" xmlns="http://www.w3.org/2000/svg" viewBox="0 0 301.46191 302.13281"><defs><style>.cls-1{fill:#010101;}</style></defs><title>m-shape</title><path class="cls-1" d="M7,302.13281a6.99972,6.99972,0,0,1-7-7V7.00537a7,7,0,0,1,14,0V295.13281A6.99972,6.99972,0,0,1,7,302.13281Z"/><path class="cls-1" d="M78.86523,302.127a6.99972,6.99972,0,0,1-7-7V7a7,7,0,0,1,14,0V295.127A6.99972,6.99972,0,0,1,78.86523,302.127Z"/><path class="cls-1" d="M150.731,302.13281a6.99972,6.99972,0,0,1-7-7V7.00537a6.99976,6.99976,0,1,1,13.99951,0V295.13281A6.99962,6.99962,0,0,1,150.731,302.13281Z"/><path class="cls-1" d="M222.59668,302.127a6.99972,6.99972,0,0,1-7-7V7a7,7,0,0,1,14,0V295.127A6.99972,6.99972,0,0,1,222.59668,302.127Z"/><path class="cls-1" d="M294.46191,302.13281a6.99972,6.99972,0,0,1-7-7V79.19824a7,7,0,0,1,14,0V295.13281A6.99972,6.99972,0,0,1,294.46191,302.13281Z"/><path class="cls-1" d="M7,14.00537a7,7,0,0,1,0-14L222.59668,0a7,7,0,0,1,0,14Z"/><path class="cls-1" d="M294.46191,86.19824H7a7,7,0,0,1,0-14H294.46191a7,7,0,0,1,0,14Z"/></svg>