<svg id="Layer_1" data-name="Layer 1" xmlns="http://www.w3.org/2000/svg" viewBox="0 0 229.41309 301.88672"><defs><style>.cls-1{fill:#010101;}</style></defs><title>n-shape</title><path class="cls-1" d="M7,301.88672a6.99972,6.99972,0,0,1-7-7V7.00537a7,7,0,0,1,14,0V294.88672A6.99972,6.99972,0,0,1,7,301.88672Z"/><path class="cls-1" d="M78.8042,301.88184a6.99972,6.99972,0,0,1-7-7V7a7,7,0,0,1,14,0V294.88184A6.99972,6.99972,0,0,1,78.8042,301.88184Z"/><path class="cls-1" d="M150.6084,301.88672a6.99972,6.99972,0,0,1-7-7V7.00537a7,7,0,0,1,14,0V294.88672A6.99972,6.99972,0,0,1,150.6084,301.88672Z"/><path class="cls-1" d="M222.41309,301.88184a6.99972,6.99972,0,0,1-7-7V7a7,7,0,0,1,14,0V294.88184A6.99972,6.99972,0,0,1,222.41309,301.88184Z"/><path class="cls-1" d="M7,14.00537a7,7,0,0,1,0-14L222.41309,0a7,7,0,0,1,0,14Z"/><path class="cls-1" d="M222.41309,86.13672H7a7,7,0,0,1,0-14H222.41309a7,7,0,0,1,0,14Z"/></svg>