<svg id="Layer_1" data-name="Layer 1" xmlns="http://www.w3.org/2000/svg" viewBox="0 0 230.01221 301.88721"><defs><style>.cls-1{fill:#010101;}</style></defs><title>o-shape</title><path class="cls-1" d="M215.8208,621h0a6.99972,6.99972,0,0,1-7-7l.00684-287.88184a7.00034,7.00034,0,0,1,7-7h0a7,7,0,0,1,7,7L222.8208,614A7,7,0,0,1,215.8208,621Z" transform="translate(-208.8208 -319.11279)"/><path class="cls-1" d="M287.8291,621a6.99972,6.99972,0,0,1-7-7V326.11279a7,7,0,0,1,14,0V614A6.99972,6.99972,0,0,1,287.8291,621Z" transform="translate(-208.8208 -319.11279)"/><path class="cls-1" d="M359.83105,621a6.99972,6.99972,0,0,1-7-7V326.11816a7,7,0,0,1,14,0V614A6.99972,6.99972,0,0,1,359.83105,621Z" transform="translate(-208.8208 -319.11279)"/><path class="cls-1" d="M431.833,621a6.99972,6.99972,0,0,1-7-7V326.11279a7,7,0,0,1,14,0V614A6.99972,6.99972,0,0,1,431.833,621Z" transform="translate(-208.8208 -319.11279)"/><path class="cls-1" d="M215.82764,333.11816a7,7,0,1,1,0-14l216.00537-.00537a7,7,0,0,1,0,14Z" transform="translate(-208.8208 -319.11279)"/><path class="cls-1" d="M431.833,405.44824H215.82764a7,7,0,0,1,0-14H431.833a7,7,0,0,1,0,14Z" transform="translate(-208.8208 -319.11279)"/><path class="cls-1" d="M215.82764,549.12305a7,7,0,1,1,0-14l216.00537-.00489a7,7,0,1,1,0,14Z" transform="translate(-208.8208 -319.11279)"/><path class="cls-1" d="M431.82617,621H215.8208a7,7,0,1,1,0-14H431.82617a7,7,0,1,1,0,14Z" transform="translate(-208.8208 -319.11279)"/></svg>