<svg id="Layer_1" data-name="Layer 1" xmlns="http://www.w3.org/2000/svg" viewBox="0 0 229.92871 374.2207"><defs><style>.cls-1{fill:#010101;}</style></defs><title>p-shape</title><path class="cls-1" d="M7,374.2207a6.99972,6.99972,0,0,1-7-7V7.00537a7,7,0,0,1,14,0V367.2207A6.99972,6.99972,0,0,1,7,374.2207Z"/><path class="cls-1" d="M78.97656,374.2207a6.99972,6.99972,0,0,1-7-7V7a7,7,0,0,1,14,0V367.2207A6.99972,6.99972,0,0,1,78.97656,374.2207Z"/><path class="cls-1" d="M150.95313,301.78613a6.99972,6.99972,0,0,1-7-7V7.00537a7,7,0,0,1,14,0V294.78613A6.99972,6.99972,0,0,1,150.95313,301.78613Z"/><path class="cls-1" d="M222.92871,302.23926a6.99972,6.99972,0,0,1-7-7V7a7,7,0,0,1,14,0V295.23926A6.99972,6.99972,0,0,1,222.92871,302.23926Z"/><path class="cls-1" d="M7,14.00537a7,7,0,0,1,0-14L222.92871,0a7,7,0,0,1,0,14Z"/><path class="cls-1" d="M222.92871,86.30957H7a7,7,0,0,1,0-14H222.92871a7,7,0,0,1,0,14Z"/><path class="cls-1" d="M7,229.93457a7,7,0,0,1,0-14l215.92871-.00586a7,7,0,0,1,0,14Z"/><path class="cls-1" d="M222.92871,302.23926H7a7,7,0,0,1,0-14H222.92871a7,7,0,0,1,0,14Z"/></svg>