<svg id="Layer_1" data-name="Layer 1" xmlns="http://www.w3.org/2000/svg" viewBox="0 0 229.5625 373.60938"><defs><style>.cls-1{fill:#010101;}</style></defs><title>q-shape</title><path class="cls-1" d="M7,301.75a6.99972,6.99972,0,0,1-7-7V7.00586a7,7,0,0,1,14,0V294.75A6.99972,6.99972,0,0,1,7,301.75Z"/><path class="cls-1" d="M78.854,301.75a6.99972,6.99972,0,0,1-7-7V7.00049a7,7,0,0,1,14,0V294.75A6.99972,6.99972,0,0,1,78.854,301.75Z"/><path class="cls-1" d="M150.708,373.19336a6.99972,6.99972,0,0,1-7-7V7.00635a7,7,0,1,1,14,0v359.187A6.99972,6.99972,0,0,1,150.708,373.19336Z"/><path class="cls-1" d="M222.5625,373.60938a6.99972,6.99972,0,0,1-7-7V7a7,7,0,0,1,14,0V366.60938A6.99972,6.99972,0,0,1,222.5625,373.60938Z"/><path class="cls-1" d="M7,14.00586a7,7,0,0,1,0-14L222.5625.00049a7,7,0,1,1,0,14Z"/><path class="cls-1" d="M222.5625,86.1875H7a7,7,0,0,1,0-14H222.5625a7,7,0,0,1,0,14Z"/><path class="cls-1" d="M7,229.56836a7,7,0,0,1,0-14l215.5625-.00488a7,7,0,0,1,0,14Z"/><path class="cls-1" d="M222.5625,301.75H7a7,7,0,0,1,0-14H222.5625a7,7,0,0,1,0,14Z"/></svg>