<svg id="Layer_1" data-name="Layer 1" xmlns="http://www.w3.org/2000/svg" viewBox="0 0 158.26758 304.55371"><defs><style>.cls-1{fill:#010101;}</style></defs><title>r-shape</title><path class="cls-1" d="M7,304.55371a6.99972,6.99972,0,0,1-7-7V7.00537a7,7,0,0,1,14,0V297.55371A6.99972,6.99972,0,0,1,7,304.55371Z"/><path class="cls-1" d="M79.46924,304.54883a6.99972,6.99972,0,0,1-7-7V7A6.99976,6.99976,0,1,1,86.46875,7V297.54883A6.99962,6.99962,0,0,1,79.46924,304.54883Z"/><path class="cls-1" d="M7.00049,14.00537a7,7,0,0,1-.001-14L151.26758,0a7,7,0,1,1,0,14Z"/><path class="cls-1" d="M151.26758,86.80469H7a7,7,0,0,1,0-14H151.26758a7,7,0,0,1,0,14Z"/></svg>