<svg id="Layer_1" data-name="Layer 1" xmlns="http://www.w3.org/2000/svg" viewBox="0 0 230.12695 302.50293"><defs><style>.cls-1{fill:#010101;}</style></defs><title>s-shape</title><path class="cls-1" d="M7,158.02832a6.99972,6.99972,0,0,1-7-7V7.00342a7,7,0,0,1,14,0v144.0249A6.99972,6.99972,0,0,1,7,158.02832Z"/><path class="cls-1" d="M79.04248,158.02832a6.99972,6.99972,0,0,1-7-7V7.001a7,7,0,1,1,14,0V151.02832A6.99972,6.99972,0,0,1,79.04248,158.02832Z"/><path class="cls-1" d="M151.085,301.7998a6.99972,6.99972,0,0,1-7-7V79.019a7,7,0,1,1,14,0V294.7998A6.99972,6.99972,0,0,1,151.085,301.7998Z"/><path class="cls-1" d="M223.127,302.0498a6.99972,6.99972,0,0,1-7-7V79.01514a7,7,0,0,1,14,0V295.0498A6.99972,6.99972,0,0,1,223.127,302.0498Z"/><path class="cls-1" d="M7,14.00537a7,7,0,0,1,0-14L223.127,0a7,7,0,0,1,0,14Z"/><path class="cls-1" d="M223.127,86.376H7a7,7,0,0,1,0-14H223.127a7,7,0,0,1,0,14Z"/><path class="cls-1" d="M7,230.13184a7,7,0,0,1,0-14l216.127-.00489a7,7,0,0,1,0,14Z"/><path class="cls-1" d="M223.127,302.50293H7a7,7,0,0,1,0-14H223.127a7,7,0,0,1,0,14Z"/><path class="cls-1" d="M223.127,158.418H7a7,7,0,0,1,0-14H223.127a7,7,0,0,1,0,14Z"/></svg>