<svg id="Layer_1" data-name="Layer 1" xmlns="http://www.w3.org/2000/svg" viewBox="0 0 229.50586 375.12207"><defs><style>.cls-1{fill:#010101;}</style></defs><title>t-shape</title><path class="cls-1" d="M79.05762,375.12207a6.99972,6.99972,0,0,1-7-7V7.00635a7,7,0,1,1,14,0V368.12207A6.99972,6.99972,0,0,1,79.05762,375.12207Z"/><path class="cls-1" d="M151.11523,375.11621a6.99972,6.99972,0,0,1-7-7V7a7,7,0,0,1,14,0V368.11621A6.99972,6.99972,0,0,1,151.11523,375.11621Z"/><path class="cls-1" d="M7,86.2251a7,7,0,0,1,0-14l215.50586-.00537a7,7,0,0,1,0,14Z"/><path class="cls-1" d="M222.50586,158.61133H7a7,7,0,0,1,0-14H222.50586a7,7,0,1,1,0,14Z"/><path class="cls-1" d="M79.05811,302.39844a7,7,0,0,1-.001-14l143.44873-.00586a7,7,0,1,1,0,14Z"/><path class="cls-1" d="M222.50586,374.78418H79.05762a7,7,0,1,1,0-14H222.50586a7,7,0,0,1,0,14Z"/></svg>