<svg id="Layer_1" data-name="Layer 1" xmlns="http://www.w3.org/2000/svg" viewBox="0 0 229.22852 301.63965"><defs><style>.cls-1{fill:#010101;}</style></defs><title>u-shape</title><path class="cls-1" d="M7,301.63379a6.99972,6.99972,0,0,1-7-7V7A7,7,0,0,1,14,7V294.63379A6.99972,6.99972,0,0,1,7,301.63379Z"/><path class="cls-1" d="M78.74219,301.63379a6.99972,6.99972,0,0,1-7-7V7a7,7,0,0,1,14,0V294.63379A6.99972,6.99972,0,0,1,78.74219,301.63379Z"/><path class="cls-1" d="M150.48438,301.63965a6.99972,6.99972,0,0,1-7-7V7.00537a7,7,0,0,1,14,0V294.63965A6.99972,6.99972,0,0,1,150.48438,301.63965Z"/><path class="cls-1" d="M222.22754,301.63379a6.99972,6.99972,0,0,1-7-7V7a7,7,0,0,1,14,0V294.63379A6.99972,6.99972,0,0,1,222.22754,301.63379Z"/><path class="cls-1" d="M7,229.23242a7,7,0,0,1,0-14l215.22754-.00488a7,7,0,0,1,0,14Z"/><path class="cls-1" d="M222.22852,301.5459H7.002a7,7,0,0,1,0-14H222.22852a7,7,0,0,1,0,14Z"/></svg>