<svg id="Layer_1" data-name="Layer 1" xmlns="http://www.w3.org/2000/svg" viewBox="0 0 231.22266 304.30566"><defs><style>.cls-1{fill:#010101;}</style></defs><title>v-shape</title><path class="cls-1" d="M7,231.22754a6.99972,6.99972,0,0,1-7-7V7A7,7,0,0,1,14,7V224.22754A6.99972,6.99972,0,0,1,7,231.22754Z"/><path class="cls-1" d="M79.40771,304.30078a6.99972,6.99972,0,0,1-7-7V7a7,7,0,0,1,14,0V297.30078A6.99972,6.99972,0,0,1,79.40771,304.30078Z"/><path class="cls-1" d="M151.81543,304.30566a6.99972,6.99972,0,0,1-7-7V7.00537a7,7,0,0,1,14,0V297.30566A6.99972,6.99972,0,0,1,151.81543,304.30566Z"/><path class="cls-1" d="M224.22266,231.22266a6.99972,6.99972,0,0,1-7-7V7a7,7,0,0,1,14,0V224.22266A6.99972,6.99972,0,0,1,224.22266,231.22266Z"/><path class="cls-1" d="M7,231.22754a7,7,0,0,1,0-14l217.22266-.00488a7,7,0,0,1,0,14Z"/><path class="cls-1" d="M151.81543,304.21191H79.40771a7,7,0,0,1,0-14h72.40772a7,7,0,0,1,0,14Z"/></svg>