<svg id="Layer_1" data-name="Layer 1" xmlns="http://www.w3.org/2000/svg" viewBox="0 0 373.54395 302.30566"><defs><style>.cls-1{fill:#010101;}</style></defs><title>w-shape</title><path class="cls-1" d="M7,229.73145a6.99972,6.99972,0,0,1-7-7V7A7,7,0,0,1,14,7V222.73145A6.99972,6.99972,0,0,1,7,229.73145Z"/><path class="cls-1" d="M78.90869,302.30078a6.99972,6.99972,0,0,1-7-7V7a7,7,0,0,1,14,0V295.30078A6.99972,6.99972,0,0,1,78.90869,302.30078Z"/><path class="cls-1" d="M150.81738,302.30566a6.99972,6.99972,0,0,1-7-7V7.00537a7,7,0,0,1,14,0V295.30566A6.99972,6.99972,0,0,1,150.81738,302.30566Z"/><path class="cls-1" d="M366.544,229.72656a6.99972,6.99972,0,0,1-7-7V7a7,7,0,0,1,14,0V222.72656A6.99972,6.99972,0,0,1,366.544,229.72656Z"/><path class="cls-1" d="M366.544,229.73145H7a7,7,0,0,1,0-14H366.544a7,7,0,0,1,0,14Z"/><path class="cls-1" d="M150.81738,302.21191H78.90869a7,7,0,1,1,0-14h71.90869a7,7,0,0,1,0,14Z"/><path class="cls-1" d="M222.72656,302.30078a6.99972,6.99972,0,0,1-7-7V7a7,7,0,0,1,14,0V295.30078A6.99972,6.99972,0,0,1,222.72656,302.30078Z"/><path class="cls-1" d="M294.63477,302.30566a6.99971,6.99971,0,0,1-7-7V7.00537a7,7,0,0,1,14,0V295.30566A6.99972,6.99972,0,0,1,294.63477,302.30566Z"/><path class="cls-1" d="M294.63477,302.21191H222.72656a7,7,0,0,1,0-14h71.90821a7,7,0,0,1,0,14Z"/></svg>