<svg id="Layer_1" data-name="Layer 1" xmlns="http://www.w3.org/2000/svg" viewBox="0 0 228.98047 301.30566"><defs><style>.cls-1{fill:#010101;}</style></defs><title>x-shape</title><path class="cls-1" d="M7.00049,85.66455a6.99972,6.99972,0,0,1-7-7V7a7,7,0,1,1,14,0V78.66455A6.99972,6.99972,0,0,1,7.00049,85.66455Z"/><path class="cls-1" d="M78.65967,301.30078a6.99972,6.99972,0,0,1-7-7V7a7,7,0,0,1,14,0V294.30078A6.99972,6.99972,0,0,1,78.65967,301.30078Z"/><path class="cls-1" d="M150.31934,301.30566a6.99972,6.99972,0,0,1-7-7V7.00537a7,7,0,0,1,14,0V294.30566A6.99972,6.99972,0,0,1,150.31934,301.30566Z"/><path class="cls-1" d="M221.97852,85.9082a6.99972,6.99972,0,0,1-7-7V7a7,7,0,0,1,14,0V78.9082A6.99972,6.99972,0,0,1,221.97852,85.9082Z"/><path class="cls-1" d="M7.00049,85.66455a7,7,0,0,1,0-14l214.978-.00537a7,7,0,0,1,0,14Z"/><path class="cls-1" d="M221.98047,157.89453H7.00244a7.00025,7.00025,0,0,1,0-14.00049h214.978a7.00025,7.00025,0,0,1,0,14.00049Z"/><path class="cls-1" d="M7,300.81543a6.99972,6.99972,0,0,1-7-7V150.31592a7,7,0,0,1,14,0V293.81543A6.99972,6.99972,0,0,1,7,300.81543Z"/><path class="cls-1" d="M221.97754,301.30371a6.99972,6.99972,0,0,1-7-7V150.31592a7,7,0,0,1,14,0V294.30371A6.99972,6.99972,0,0,1,221.97754,301.30371Z"/></svg>