<svg id="Layer_1" data-name="Layer 1" xmlns="http://www.w3.org/2000/svg" viewBox="0 0 230.29785 374.83594"><defs><style>.cls-1{fill:#010101;}</style></defs><title>y-shape</title><path class="cls-1" d="M7,302.73242a6.99972,6.99972,0,0,1-7-7V7.00586a7,7,0,0,1,14,0V295.73242A6.99972,6.99972,0,0,1,7,302.73242Z"/><path class="cls-1" d="M79.09961,302.73242a6.99972,6.99972,0,0,1-7-7V7.00049a7,7,0,0,1,14,0V295.73242A6.99972,6.99972,0,0,1,79.09961,302.73242Z"/><path class="cls-1" d="M151.19922,374.41992a6.99972,6.99972,0,0,1-7-7V7.00635a7,7,0,1,1,14,0V367.41992A6.99972,6.99972,0,0,1,151.19922,374.41992Z"/><path class="cls-1" d="M223.29785,374.83594a6.99972,6.99972,0,0,1-7-7V7a7,7,0,0,1,14,0V367.83594A6.99972,6.99972,0,0,1,223.29785,374.83594Z"/><path class="cls-1" d="M7,374.50293a7,7,0,0,1,0-14l216.29785-.00488a7,7,0,0,1,0,14Z"/><path class="cls-1" d="M7,230.30371a7,7,0,0,1,0-14l216.29785-.00488a7,7,0,0,1,0,14Z"/><path class="cls-1" d="M223.29785,302.73242H7a7,7,0,0,1,0-14H223.29785a7,7,0,0,1,0,14Z"/></svg>