<svg id="Layer_1" data-name="Layer 1" xmlns="http://www.w3.org/2000/svg" viewBox="0 0 229.87695 302.16895"><defs><style>.cls-1{fill:#010101;}</style></defs><title>z-shape</title><path class="cls-1" d="M150.918,157.8623a7.00045,7.00045,0,0,1-7-7.00048V7.00342a7,7,0,0,1,14,0v143.8584A7.00045,7.00045,0,0,1,150.918,157.8623Z"/><path class="cls-1" d="M222.877,157.8623a7.00045,7.00045,0,0,1-7-7.00048V7.001a7,7,0,1,1,14,0V150.86182A7.00045,7.00045,0,0,1,222.877,157.8623Z"/><path class="cls-1" d="M7.00049,301.55176a6.99972,6.99972,0,0,1-7-7V150.86523a7,7,0,0,1,14,0V294.55176A6.99972,6.99972,0,0,1,7.00049,301.55176Z"/><path class="cls-1" d="M78.95947,301.71777a6.99972,6.99972,0,0,1-7-7v-143.855a7,7,0,0,1,14,0v143.855A6.99972,6.99972,0,0,1,78.95947,301.71777Z"/><path class="cls-1" d="M7,14.00537a7,7,0,0,1,0-14L222.877,0a7,7,0,0,1,0,14Z"/><path class="cls-1" d="M222.877,86.292H78.95947a7,7,0,0,1,0-14H222.877a7,7,0,1,1,0,14Z"/><path class="cls-1" d="M7,229.88184a7,7,0,0,1,0-14l215.877-.00489a7,7,0,0,1,0,14Z"/><path class="cls-1" d="M222.877,302.169H7a7,7,0,0,1,0-14H222.877a7,7,0,0,1,0,14Z"/><path class="cls-1" d="M222.877,158.251H7a7,7,0,0,1,0-14H222.877a7,7,0,0,1,0,14Z"/></svg>